<svg xmlns="http://www.w3.org/2000/svg" xmlns:xlink="http://www.w3.org/1999/xlink" width="137" zoomAndPan="magnify" viewBox="0 0 205.5 54" height="36" preserveAspectRatio="xMidYMid meet" version="1.0"><defs><g/><clipPath id="d09bed059c"><path d="M 7.929688 13 L 35 13 L 35 44 L 7.929688 44 Z M 7.929688 13 " clip-rule="nonzero"/></clipPath><clipPath id="ff5a09cd11"><path d="M 10 45 L 32 45 L 32 47.25 L 10 47.25 Z M 10 45 " clip-rule="nonzero"/></clipPath><clipPath id="53aa9fd964"><path d="M 36 19 L 44.75 19 L 44.75 38 L 36 38 Z M 36 19 " clip-rule="nonzero"/></clipPath><clipPath id="4234e408f8"><path d="M 16 3.804688 L 19 3.804688 L 19 13 L 16 13 Z M 16 3.804688 " clip-rule="nonzero"/></clipPath><clipPath id="88dd783248"><path d="M 19 3.804688 L 23 3.804688 L 23 13 L 19 13 Z M 19 3.804688 " clip-rule="nonzero"/></clipPath><clipPath id="81aebeda44"><path d="M 23 3.804688 L 27 3.804688 L 27 13 L 23 13 Z M 23 3.804688 " clip-rule="nonzero"/></clipPath></defs><g fill="#000000" fill-opacity="1"><g transform="translate(49.01375, 39.112747)"><g><path d="M 10.046875 -23.4375 C 12.429688 -23.4375 14.296875 -23.140625 15.640625 -22.546875 C 16.910156 -21.953125 17.914062 -21.023438 18.65625 -19.765625 C 19.394531 -18.515625 19.765625 -17.097656 19.765625 -15.515625 C 19.765625 -13.003906 19 -11.015625 17.46875 -9.546875 C 15.9375 -8.078125 13.660156 -7.34375 10.640625 -7.34375 L 7.859375 -7.34375 L 7.859375 0 L 2.125 0 L 2.125 -23.4375 Z M 14.03125 -15.421875 C 14.03125 -16.367188 13.722656 -17.0625 13.109375 -17.5 C 12.492188 -17.945312 11.523438 -18.171875 10.203125 -18.171875 L 7.859375 -18.171875 L 7.859375 -12.609375 L 10.421875 -12.609375 C 11.640625 -12.609375 12.546875 -12.828125 13.140625 -13.265625 C 13.734375 -13.710938 14.03125 -14.429688 14.03125 -15.421875 Z M 14.03125 -15.421875 "/></g></g></g><g fill="#000000" fill-opacity="1"><g transform="translate(68.52416, 39.112747)"><g><path d="M 15.046875 -1.90625 C 14.660156 -1.144531 13.992188 -0.535156 13.046875 -0.078125 C 12.097656 0.378906 11.039062 0.609375 9.875 0.609375 C 8.1875 0.609375 6.671875 0.195312 5.328125 -0.625 C 3.992188 -1.457031 2.953125 -2.585938 2.203125 -4.015625 C 1.453125 -5.453125 1.078125 -7.050781 1.078125 -8.8125 C 1.078125 -10.519531 1.460938 -12.085938 2.234375 -13.515625 C 3.003906 -14.953125 4.054688 -16.085938 5.390625 -16.921875 C 6.734375 -17.753906 8.226562 -18.171875 9.875 -18.171875 C 10.976562 -18.171875 11.992188 -17.953125 12.921875 -17.515625 C 13.847656 -17.085938 14.554688 -16.484375 15.046875 -15.703125 L 15.109375 -15.703125 L 15.109375 -17.578125 L 20.359375 -17.578125 L 20.359375 0 L 15.109375 0 L 15.109375 -1.90625 Z M 15.109375 -8.8125 C 15.109375 -9.613281 14.90625 -10.351562 14.5 -11.03125 C 14.101562 -11.71875 13.5625 -12.257812 12.875 -12.65625 C 12.1875 -13.0625 11.441406 -13.265625 10.640625 -13.265625 C 9.859375 -13.265625 9.132812 -13.0625 8.46875 -12.65625 C 7.800781 -12.257812 7.273438 -11.710938 6.890625 -11.015625 C 6.515625 -10.328125 6.328125 -9.566406 6.328125 -8.734375 C 6.328125 -7.929688 6.519531 -7.191406 6.90625 -6.515625 C 7.300781 -5.847656 7.832031 -5.3125 8.5 -4.90625 C 9.164062 -4.507812 9.898438 -4.3125 10.703125 -4.3125 C 11.503906 -4.3125 12.242188 -4.507812 12.921875 -4.90625 C 13.597656 -5.3125 14.128906 -5.851562 14.515625 -6.53125 C 14.910156 -7.21875 15.109375 -7.976562 15.109375 -8.8125 Z M 15.109375 -8.8125 "/></g></g></g><g fill="#000000" fill-opacity="1"><g transform="translate(90.188318, 39.112747)"><g><path d="M 0.03125 -17.578125 L 5.640625 -17.578125 L 9.15625 -7.375 L 9.21875 -7.375 L 12.578125 -17.578125 L 18.140625 -17.578125 L 9.34375 5.859375 L 3.765625 5.859375 L 6.5625 -0.890625 Z M 0.03125 -17.578125 "/></g></g></g><g fill="#000000" fill-opacity="1"><g transform="translate(107.735012, 39.112747)"><g><path d="M 6.8125 -17.578125 L 6.8125 -15.703125 L 6.875 -15.703125 C 7.3125 -16.617188 7.890625 -17.257812 8.609375 -17.625 C 9.328125 -17.988281 10.21875 -18.171875 11.28125 -18.171875 L 11.28125 -12.890625 C 9.78125 -12.867188 8.710938 -12.59375 8.078125 -12.0625 C 7.441406 -11.539062 7.125 -10.75 7.125 -9.6875 L 7.125 0 L 1.875 0 L 1.875 -17.578125 Z M 6.8125 -17.578125 "/></g></g></g><g fill="#000000" fill-opacity="1"><g transform="translate(118.598748, 39.112747)"><g><path d="M 10.546875 0.53125 C 8.773438 0.53125 7.171875 0.125 5.734375 -0.6875 C 4.296875 -1.5 3.160156 -2.609375 2.328125 -4.015625 C 1.492188 -5.429688 1.078125 -7.03125 1.078125 -8.8125 C 1.078125 -10.582031 1.5 -12.175781 2.34375 -13.59375 C 3.1875 -15.019531 4.332031 -16.132812 5.78125 -16.9375 C 7.226562 -17.738281 8.816406 -18.140625 10.546875 -18.140625 C 12.296875 -18.140625 13.894531 -17.738281 15.34375 -16.9375 C 16.789062 -16.132812 17.929688 -15.019531 18.765625 -13.59375 C 19.597656 -12.175781 20.015625 -10.601562 20.015625 -8.875 C 20.015625 -7.070312 19.597656 -5.453125 18.765625 -4.015625 C 17.929688 -2.585938 16.789062 -1.472656 15.34375 -0.671875 C 13.894531 0.128906 12.296875 0.53125 10.546875 0.53125 Z M 14.765625 -8.8125 C 14.765625 -9.59375 14.578125 -10.316406 14.203125 -10.984375 C 13.835938 -11.660156 13.332031 -12.203125 12.6875 -12.609375 C 12.039062 -13.023438 11.316406 -13.234375 10.515625 -13.234375 C 9.753906 -13.234375 9.054688 -13.03125 8.421875 -12.625 C 7.785156 -12.226562 7.273438 -11.6875 6.890625 -11 C 6.515625 -10.320312 6.328125 -9.59375 6.328125 -8.8125 C 6.328125 -8 6.507812 -7.253906 6.875 -6.578125 C 7.25 -5.910156 7.757812 -5.375 8.40625 -4.96875 C 9.050781 -4.570312 9.765625 -4.375 10.546875 -4.375 C 11.347656 -4.375 12.070312 -4.578125 12.71875 -4.984375 C 13.363281 -5.398438 13.863281 -5.945312 14.21875 -6.625 C 14.582031 -7.300781 14.765625 -8.03125 14.765625 -8.8125 Z M 14.765625 -8.8125 "/></g></g></g><g fill="#000000" fill-opacity="1"><g transform="translate(139.059343, 39.112747)"><g><path d="M 7.15625 -23.4375 L 7.15625 0 L 1.90625 0 L 1.90625 -23.4375 Z M 7.15625 -23.4375 "/></g></g></g><g fill="#000000" fill-opacity="1"><g transform="translate(147.485748, 39.112747)"><g><path d="M 4.9375 -23.4375 L 4.9375 -2.125 L 14.625 -2.125 L 14.625 0 L 2.59375 0 L 2.59375 -23.4375 Z M 4.9375 -23.4375 "/></g></g></g><g fill="#000000" fill-opacity="1"><g transform="translate(161.48509, 39.112747)"><g><path d="M 4.28125 -23.4375 L 4.28125 -19.453125 L 2.0625 -19.453125 L 2.0625 -23.4375 Z M 4.28125 -17.328125 L 4.28125 0 L 2.0625 0 L 2.0625 -17.328125 Z M 4.28125 -17.328125 "/></g></g></g><g fill="#000000" fill-opacity="1"><g transform="translate(167.186163, 39.112747)"><g><path d="M 0.4375 -15.328125 L 0.4375 -17.328125 L 4.078125 -17.328125 L 4.078125 -23.4375 L 6.296875 -23.4375 L 6.296875 -17.328125 L 10.453125 -17.328125 L 10.453125 -15.328125 L 6.296875 -15.328125 L 6.296875 0 L 4.078125 0 L 4.078125 -15.328125 Z M 0.4375 -15.328125 "/></g></g></g><g fill="#000000" fill-opacity="1"><g transform="translate(177.289756, 39.112747)"><g><path d="M 10.203125 -1.578125 C 11.566406 -1.578125 12.820312 -1.945312 13.96875 -2.6875 C 15.125 -3.425781 15.9375 -4.421875 16.40625 -5.671875 L 18.75 -5.671875 C 18.09375 -3.828125 16.976562 -2.351562 15.40625 -1.25 C 13.832031 -0.144531 12.109375 0.40625 10.234375 0.40625 C 8.609375 0.40625 7.101562 0.00390625 5.71875 -0.796875 C 4.332031 -1.597656 3.234375 -2.691406 2.421875 -4.078125 C 1.609375 -5.472656 1.203125 -6.992188 1.203125 -8.640625 C 1.203125 -10.285156 1.613281 -11.804688 2.4375 -13.203125 C 3.257812 -14.597656 4.363281 -15.707031 5.75 -16.53125 C 7.132812 -17.351562 8.617188 -17.765625 10.203125 -17.765625 C 11.890625 -17.765625 13.421875 -17.332031 14.796875 -16.46875 C 16.179688 -15.601562 17.273438 -14.457031 18.078125 -13.03125 C 18.878906 -11.601562 19.28125 -10.097656 19.28125 -8.515625 L 19.25 -7.859375 L 3.484375 -7.859375 C 3.546875 -6.734375 3.898438 -5.691406 4.546875 -4.734375 C 5.191406 -3.773438 6.019531 -3.007812 7.03125 -2.4375 C 8.039062 -1.863281 9.097656 -1.578125 10.203125 -1.578125 Z M 10.203125 -15.765625 C 9.117188 -15.765625 8.101562 -15.515625 7.15625 -15.015625 C 6.207031 -14.523438 5.40625 -13.832031 4.75 -12.9375 C 4.09375 -12.039062 3.671875 -11.007812 3.484375 -9.84375 L 17 -9.84375 C 16.6875 -11.601562 15.898438 -13.03125 14.640625 -14.125 C 13.390625 -15.21875 11.910156 -15.765625 10.203125 -15.765625 Z M 10.203125 -15.765625 "/></g></g></g><g clip-path="url(#d09bed059c)"><path fill="#000000" d="M 7.929688 41.699219 C 7.929688 42.71875 8.753906 43.546875 9.769531 43.546875 L 32.785156 43.546875 C 33.800781 43.546875 34.625 42.71875 34.625 41.699219 L 34.625 13.976562 L 7.929688 13.976562 Z M 7.929688 41.699219 " fill-opacity="1" fill-rule="nonzero"/></g><g clip-path="url(#ff5a09cd11)"><path fill="#000000" d="M 10.691406 45.394531 L 31.863281 45.394531 L 31.863281 47.246094 L 10.691406 47.246094 Z M 10.691406 45.394531 " fill-opacity="1" fill-rule="nonzero"/></g><g clip-path="url(#53aa9fd964)"><path fill="#000000" d="M 40.148438 19.984375 L 36.464844 19.984375 L 36.464844 21.832031 L 39.226562 21.832031 C 41.257812 21.832031 42.910156 23.488281 42.910156 25.527344 L 42.910156 31.996094 C 42.910156 34.035156 41.257812 35.691406 39.226562 35.691406 L 36.464844 35.691406 L 36.464844 37.542969 L 40.148438 37.542969 C 42.6875 37.542969 44.75 35.46875 44.75 32.921875 L 44.75 24.605469 C 44.75 22.054688 42.6875 19.984375 40.148438 19.984375 Z M 40.148438 19.984375 " fill-opacity="1" fill-rule="nonzero"/></g><g clip-path="url(#4234e408f8)"><path fill="#000000" d="M 17.132812 11.203125 C 17.132812 11.714844 17.546875 12.128906 18.054688 12.128906 C 18.5625 12.128906 18.976562 11.714844 18.976562 11.203125 C 18.976562 10.109375 18.5625 9.503906 18.261719 9.0625 C 18.019531 8.707031 17.871094 8.492188 17.871094 7.96875 C 17.871094 7.449219 18.019531 7.230469 18.261719 6.875 C 18.5625 6.433594 18.976562 5.832031 18.976562 4.734375 C 18.976562 4.226562 18.5625 3.8125 18.054688 3.8125 C 17.546875 3.8125 17.132812 4.226562 17.132812 4.734375 C 17.132812 5.257812 16.988281 5.472656 16.742188 5.828125 C 16.441406 6.269531 16.03125 6.875 16.03125 7.96875 C 16.03125 9.066406 16.441406 9.667969 16.742188 10.109375 C 16.988281 10.464844 17.132812 10.683594 17.132812 11.203125 Z M 17.132812 11.203125 " fill-opacity="1" fill-rule="nonzero"/></g><g clip-path="url(#88dd783248)"><path fill="#000000" d="M 21 11.203125 C 21 11.714844 21.414062 12.128906 21.921875 12.128906 C 22.429688 12.128906 22.84375 11.714844 22.84375 11.203125 C 22.84375 10.109375 22.429688 9.503906 22.128906 9.0625 C 21.882812 8.707031 21.738281 8.492188 21.738281 7.96875 C 21.738281 7.449219 21.882812 7.230469 22.128906 6.875 C 22.429688 6.433594 22.84375 5.832031 22.84375 4.734375 C 22.84375 4.226562 22.429688 3.8125 21.921875 3.8125 C 21.414062 3.8125 21 4.226562 21 4.734375 C 21 5.257812 20.855469 5.472656 20.609375 5.828125 C 20.308594 6.269531 19.894531 6.875 19.894531 7.96875 C 19.894531 9.066406 20.308594 9.667969 20.609375 10.109375 C 20.855469 10.464844 21 10.683594 21 11.203125 Z M 21 11.203125 " fill-opacity="1" fill-rule="nonzero"/></g><g clip-path="url(#81aebeda44)"><path fill="#000000" d="M 24.683594 11.203125 C 24.683594 11.714844 25.09375 12.128906 25.601562 12.128906 C 26.113281 12.128906 26.523438 11.714844 26.523438 11.203125 C 26.523438 10.109375 26.113281 9.503906 25.808594 9.0625 C 25.566406 8.707031 25.417969 8.492188 25.417969 7.96875 C 25.417969 7.449219 25.566406 7.230469 25.808594 6.875 C 26.113281 6.433594 26.523438 5.832031 26.523438 4.734375 C 26.523438 4.226562 26.113281 3.8125 25.601562 3.8125 C 25.09375 3.8125 24.683594 4.226562 24.683594 4.734375 C 24.683594 5.257812 24.535156 5.472656 24.292969 5.828125 C 23.992188 6.269531 23.578125 6.875 23.578125 7.96875 C 23.578125 9.066406 23.992188 9.667969 24.292969 10.109375 C 24.535156 10.464844 24.683594 10.683594 24.683594 11.203125 Z M 24.683594 11.203125 " fill-opacity="1" fill-rule="nonzero"/></g></svg>