<svg xmlns="http://www.w3.org/2000/svg" xmlns:xlink="http://www.w3.org/1999/xlink" width="274" zoomAndPan="magnify" viewBox="0 0 205.5 54" height="72" preserveAspectRatio="xMidYMid meet" version="1.0"><defs><g/><clipPath id="7daf085f69"><path d="M 7.929688 13 L 35 13 L 35 44 L 7.929688 44 Z M 7.929688 13 " clip-rule="nonzero"/></clipPath><clipPath id="963d059504"><path d="M 10 45 L 32 45 L 32 47.25 L 10 47.25 Z M 10 45 " clip-rule="nonzero"/></clipPath><clipPath id="f73e4fd382"><path d="M 36 19 L 44.75 19 L 44.75 38 L 36 38 Z M 36 19 " clip-rule="nonzero"/></clipPath><clipPath id="cbc834ae95"><path d="M 16 3.804688 L 20 3.804688 L 20 13 L 16 13 Z M 16 3.804688 " clip-rule="nonzero"/></clipPath><clipPath id="6110703ba7"><path d="M 19 3.804688 L 23 3.804688 L 23 13 L 19 13 Z M 19 3.804688 " clip-rule="nonzero"/></clipPath><clipPath id="9345e60754"><path d="M 23 3.804688 L 27 3.804688 L 27 13 L 23 13 Z M 23 3.804688 " clip-rule="nonzero"/></clipPath></defs><g fill="#ffffff" fill-opacity="1"><g transform="translate(49.01375, 39.112747)"><g><path d="M 10.046875 -23.4375 C 12.429688 -23.4375 14.296875 -23.140625 15.640625 -22.546875 C 16.910156 -21.953125 17.914062 -21.023438 18.65625 -19.765625 C 19.394531 -18.515625 19.765625 -17.097656 19.765625 -15.515625 C 19.765625 -13.003906 19 -11.015625 17.46875 -9.546875 C 15.9375 -8.078125 13.660156 -7.34375 10.640625 -7.34375 L 7.859375 -7.34375 L 7.859375 0 L 2.125 0 L 2.125 -23.4375 Z M 14.03125 -15.421875 C 14.03125 -16.367188 13.722656 -17.0625 13.109375 -17.5 C 12.492188 -17.945312 11.523438 -18.171875 10.203125 -18.171875 L 7.859375 -18.171875 L 7.859375 -12.609375 L 10.421875 -12.609375 C 11.640625 -12.609375 12.546875 -12.828125 13.140625 -13.265625 C 13.734375 -13.710938 14.03125 -14.429688 14.03125 -15.421875 Z M 14.03125 -15.421875 "/></g></g></g><g fill="#ffffff" fill-opacity="1"><g transform="translate(68.52416, 39.112747)"><g><path d="M 15.046875 -1.90625 C 14.660156 -1.144531 13.992188 -0.535156 13.046875 -0.078125 C 12.097656 0.378906 11.039062 0.609375 9.875 0.609375 C 8.1875 0.609375 6.671875 0.195312 5.328125 -0.625 C 3.992188 -1.457031 2.953125 -2.585938 2.203125 -4.015625 C 1.453125 -5.453125 1.078125 -7.050781 1.078125 -8.8125 C 1.078125 -10.519531 1.460938 -12.085938 2.234375 -13.515625 C 3.003906 -14.953125 4.054688 -16.085938 5.390625 -16.921875 C 6.734375 -17.753906 8.226562 -18.171875 9.875 -18.171875 C 10.976562 -18.171875 11.992188 -17.953125 12.921875 -17.515625 C 13.847656 -17.085938 14.554688 -16.484375 15.046875 -15.703125 L 15.109375 -15.703125 L 15.109375 -17.578125 L 20.359375 -17.578125 L 20.359375 0 L 15.109375 0 L 15.109375 -1.90625 Z M 15.109375 -8.8125 C 15.109375 -9.613281 14.90625 -10.351562 14.5 -11.03125 C 14.101562 -11.71875 13.5625 -12.257812 12.875 -12.65625 C 12.1875 -13.0625 11.441406 -13.265625 10.640625 -13.265625 C 9.859375 -13.265625 9.132812 -13.0625 8.46875 -12.65625 C 7.800781 -12.257812 7.273438 -11.710938 6.890625 -11.015625 C 6.515625 -10.328125 6.328125 -9.566406 6.328125 -8.734375 C 6.328125 -7.929688 6.519531 -7.191406 6.90625 -6.515625 C 7.300781 -5.847656 7.832031 -5.3125 8.5 -4.90625 C 9.164062 -4.507812 9.898438 -4.3125 10.703125 -4.3125 C 11.503906 -4.3125 12.242188 -4.507812 12.921875 -4.90625 C 13.597656 -5.3125 14.128906 -5.851562 14.515625 -6.53125 C 14.910156 -7.21875 15.109375 -7.976562 15.109375 -8.8125 Z M 15.109375 -8.8125 "/></g></g></g><g fill="#ffffff" fill-opacity="1"><g transform="translate(90.188318, 39.112747)"><g><path d="M 0.03125 -17.578125 L 5.640625 -17.578125 L 9.15625 -7.375 L 9.21875 -7.375 L 12.578125 -17.578125 L 18.140625 -17.578125 L 9.34375 5.859375 L 3.765625 5.859375 L 6.5625 -0.890625 Z M 0.03125 -17.578125 "/></g></g></g><g fill="#ffffff" fill-opacity="1"><g transform="translate(107.735012, 39.112747)"><g><path d="M 6.8125 -17.578125 L 6.8125 -15.703125 L 6.875 -15.703125 C 7.3125 -16.617188 7.890625 -17.257812 8.609375 -17.625 C 9.328125 -17.988281 10.21875 -18.171875 11.28125 -18.171875 L 11.28125 -12.890625 C 9.78125 -12.867188 8.710938 -12.59375 8.078125 -12.0625 C 7.441406 -11.539062 7.125 -10.75 7.125 -9.6875 L 7.125 0 L 1.875 0 L 1.875 -17.578125 Z M 6.8125 -17.578125 "/></g></g></g><g fill="#ffffff" fill-opacity="1"><g transform="translate(118.598748, 39.112747)"><g><path d="M 10.546875 0.53125 C 8.773438 0.53125 7.171875 0.125 5.734375 -0.6875 C 4.296875 -1.5 3.160156 -2.609375 2.328125 -4.015625 C 1.492188 -5.429688 1.078125 -7.03125 1.078125 -8.8125 C 1.078125 -10.582031 1.5 -12.175781 2.34375 -13.59375 C 3.1875 -15.019531 4.332031 -16.132812 5.78125 -16.9375 C 7.226562 -17.738281 8.816406 -18.140625 10.546875 -18.140625 C 12.296875 -18.140625 13.894531 -17.738281 15.34375 -16.9375 C 16.789062 -16.132812 17.929688 -15.019531 18.765625 -13.59375 C 19.597656 -12.175781 20.015625 -10.601562 20.015625 -8.875 C 20.015625 -7.070312 19.597656 -5.453125 18.765625 -4.015625 C 17.929688 -2.585938 16.789062 -1.472656 15.34375 -0.671875 C 13.894531 0.128906 12.296875 0.53125 10.546875 0.53125 Z M 14.765625 -8.8125 C 14.765625 -9.59375 14.578125 -10.316406 14.203125 -10.984375 C 13.835938 -11.660156 13.332031 -12.203125 12.6875 -12.609375 C 12.039062 -13.023438 11.316406 -13.234375 10.515625 -13.234375 C 9.753906 -13.234375 9.054688 -13.03125 8.421875 -12.625 C 7.785156 -12.226562 7.273438 -11.6875 6.890625 -11 C 6.515625 -10.320312 6.328125 -9.59375 6.328125 -8.8125 C 6.328125 -8 6.507812 -7.253906 6.875 -6.578125 C 7.25 -5.910156 7.757812 -5.375 8.40625 -4.96875 C 9.050781 -4.570312 9.765625 -4.375 10.546875 -4.375 C 11.347656 -4.375 12.070312 -4.578125 12.71875 -4.984375 C 13.363281 -5.398438 13.863281 -5.945312 14.21875 -6.625 C 14.582031 -7.300781 14.765625 -8.03125 14.765625 -8.8125 Z M 14.765625 -8.8125 "/></g></g></g><g fill="#ffffff" fill-opacity="1"><g transform="translate(139.059343, 39.112747)"><g><path d="M 7.15625 -23.4375 L 7.15625 0 L 1.90625 0 L 1.90625 -23.4375 Z M 7.15625 -23.4375 "/></g></g></g><g fill="#ffffff" fill-opacity="1"><g transform="translate(147.485748, 39.112747)"><g><path d="M 4.9375 -23.4375 L 4.9375 -2.125 L 14.625 -2.125 L 14.625 0 L 2.59375 0 L 2.59375 -23.4375 Z M 4.9375 -23.4375 "/></g></g></g><g fill="#ffffff" fill-opacity="1"><g transform="translate(161.48509, 39.112747)"><g><path d="M 4.28125 -23.4375 L 4.28125 -19.453125 L 2.0625 -19.453125 L 2.0625 -23.4375 Z M 4.28125 -17.328125 L 4.28125 0 L 2.0625 0 L 2.0625 -17.328125 Z M 4.28125 -17.328125 "/></g></g></g><g fill="#ffffff" fill-opacity="1"><g transform="translate(167.186163, 39.112747)"><g><path d="M 0.4375 -15.328125 L 0.4375 -17.328125 L 4.078125 -17.328125 L 4.078125 -23.4375 L 6.296875 -23.4375 L 6.296875 -17.328125 L 10.453125 -17.328125 L 10.453125 -15.328125 L 6.296875 -15.328125 L 6.296875 0 L 4.078125 0 L 4.078125 -15.328125 Z M 0.4375 -15.328125 "/></g></g></g><g fill="#ffffff" fill-opacity="1"><g transform="translate(177.289756, 39.112747)"><g><path d="M 10.203125 -1.578125 C 11.566406 -1.578125 12.820312 -1.945312 13.96875 -2.6875 C 15.125 -3.425781 15.9375 -4.421875 16.40625 -5.671875 L 18.75 -5.671875 C 18.09375 -3.828125 16.976562 -2.351562 15.40625 -1.25 C 13.832031 -0.144531 12.109375 0.40625 10.234375 0.40625 C 8.609375 0.40625 7.101562 0.00390625 5.71875 -0.796875 C 4.332031 -1.597656 3.234375 -2.691406 2.421875 -4.078125 C 1.609375 -5.472656 1.203125 -6.992188 1.203125 -8.640625 C 1.203125 -10.285156 1.613281 -11.804688 2.4375 -13.203125 C 3.257812 -14.597656 4.363281 -15.707031 5.75 -16.53125 C 7.132812 -17.351562 8.617188 -17.765625 10.203125 -17.765625 C 11.890625 -17.765625 13.421875 -17.332031 14.796875 -16.46875 C 16.179688 -15.601562 17.273438 -14.457031 18.078125 -13.03125 C 18.878906 -11.601562 19.28125 -10.097656 19.28125 -8.515625 L 19.25 -7.859375 L 3.484375 -7.859375 C 3.546875 -6.734375 3.898438 -5.691406 4.546875 -4.734375 C 5.191406 -3.773438 6.019531 -3.007812 7.03125 -2.4375 C 8.039062 -1.863281 9.097656 -1.578125 10.203125 -1.578125 Z M 10.203125 -15.765625 C 9.117188 -15.765625 8.101562 -15.515625 7.15625 -15.015625 C 6.207031 -14.523438 5.40625 -13.832031 4.75 -12.9375 C 4.09375 -12.039062 3.671875 -11.007812 3.484375 -9.84375 L 17 -9.84375 C 16.6875 -11.601562 15.898438 -13.03125 14.640625 -14.125 C 13.390625 -15.21875 11.910156 -15.765625 10.203125 -15.765625 Z M 10.203125 -15.765625 "/></g></g></g><g clip-path="url(#7daf085f69)"><path fill="#ffffff" d="M 7.929688 41.660156 C 7.929688 42.679688 8.757812 43.507812 9.773438 43.507812 L 32.855469 43.507812 C 33.871094 43.507812 34.699219 42.679688 34.699219 41.660156 L 34.699219 13.964844 L 7.929688 13.964844 Z M 7.929688 41.660156 " fill-opacity="1" fill-rule="nonzero"/></g><g clip-path="url(#963d059504)"><path fill="#ffffff" d="M 10.699219 45.351562 L 31.929688 45.351562 L 31.929688 47.199219 L 10.699219 47.199219 Z M 10.699219 45.351562 " fill-opacity="1" fill-rule="nonzero"/></g><g clip-path="url(#f73e4fd382)"><path fill="#ffffff" d="M 40.238281 19.964844 L 36.546875 19.964844 L 36.546875 21.8125 L 39.316406 21.8125 C 41.351562 21.8125 43.007812 23.46875 43.007812 25.503906 L 43.007812 31.96875 C 43.007812 34.003906 41.351562 35.660156 39.316406 35.660156 L 36.546875 35.660156 L 36.546875 37.503906 L 40.238281 37.503906 C 42.785156 37.503906 44.855469 35.433594 44.855469 32.890625 L 44.855469 24.582031 C 44.855469 22.035156 42.785156 19.964844 40.238281 19.964844 Z M 40.238281 19.964844 " fill-opacity="1" fill-rule="nonzero"/></g><g clip-path="url(#cbc834ae95)"><path fill="#ffffff" d="M 17.160156 11.195312 C 17.160156 11.707031 17.574219 12.121094 18.082031 12.121094 C 18.59375 12.121094 19.007812 11.707031 19.007812 11.195312 C 19.007812 10.101562 18.59375 9.5 18.289062 9.058594 C 18.046875 8.703125 17.898438 8.488281 17.898438 7.964844 C 17.898438 7.445312 18.046875 7.226562 18.289062 6.871094 C 18.59375 6.429688 19.007812 5.828125 19.007812 4.734375 C 19.007812 4.226562 18.59375 3.8125 18.082031 3.8125 C 17.574219 3.8125 17.160156 4.226562 17.160156 4.734375 C 17.160156 5.257812 17.011719 5.472656 16.769531 5.828125 C 16.464844 6.269531 16.050781 6.871094 16.050781 7.964844 C 16.050781 9.058594 16.464844 9.664062 16.769531 10.101562 C 17.011719 10.460938 17.160156 10.675781 17.160156 11.195312 Z M 17.160156 11.195312 " fill-opacity="1" fill-rule="nonzero"/></g><g clip-path="url(#6110703ba7)"><path fill="#ffffff" d="M 21.039062 11.195312 C 21.039062 11.707031 21.449219 12.121094 21.960938 12.121094 C 22.46875 12.121094 22.882812 11.707031 22.882812 11.195312 C 22.882812 10.101562 22.46875 9.5 22.167969 9.058594 C 21.921875 8.703125 21.777344 8.488281 21.777344 7.964844 C 21.777344 7.445312 21.921875 7.226562 22.167969 6.871094 C 22.46875 6.429688 22.882812 5.828125 22.882812 4.734375 C 22.882812 4.226562 22.46875 3.8125 21.960938 3.8125 C 21.449219 3.8125 21.039062 4.226562 21.039062 4.734375 C 21.039062 5.257812 20.890625 5.472656 20.644531 5.828125 C 20.34375 6.269531 19.929688 6.871094 19.929688 7.964844 C 19.929688 9.058594 20.34375 9.664062 20.644531 10.101562 C 20.890625 10.460938 21.039062 10.675781 21.039062 11.195312 Z M 21.039062 11.195312 " fill-opacity="1" fill-rule="nonzero"/></g><g clip-path="url(#9345e60754)"><path fill="#ffffff" d="M 24.730469 11.195312 C 24.730469 11.707031 25.144531 12.121094 25.652344 12.121094 C 26.164062 12.121094 26.578125 11.707031 26.578125 11.195312 C 26.578125 10.101562 26.164062 9.5 25.859375 9.058594 C 25.617188 8.703125 25.46875 8.488281 25.46875 7.964844 C 25.46875 7.445312 25.617188 7.226562 25.859375 6.871094 C 26.164062 6.429688 26.578125 5.828125 26.578125 4.734375 C 26.578125 4.226562 26.164062 3.8125 25.652344 3.8125 C 25.144531 3.8125 24.730469 4.226562 24.730469 4.734375 C 24.730469 5.257812 24.582031 5.472656 24.339844 5.828125 C 24.035156 6.269531 23.621094 6.871094 23.621094 7.964844 C 23.621094 9.058594 24.035156 9.664062 24.339844 10.101562 C 24.582031 10.460938 24.730469 10.675781 24.730469 11.195312 Z M 24.730469 11.195312 " fill-opacity="1" fill-rule="nonzero"/></g></svg>